<?xml version="1.0" encoding="UTF-8" standalone="no"?>
<!-- Created with Inkscape (http://www.inkscape.org/) -->

<svg
   xmlns:dc="http://purl.org/dc/elements/1.1/"
   xmlns:cc="http://creativecommons.org/ns#"
   xmlns:rdf="http://www.w3.org/1999/02/22-rdf-syntax-ns#"
   xmlns:svg="http://www.w3.org/2000/svg"
   xmlns="http://www.w3.org/2000/svg"
   xmlns:sodipodi="http://sodipodi.sourceforge.net/DTD/sodipodi-0.dtd"
   xmlns:inkscape="http://www.inkscape.org/namespaces/inkscape"
   width="1000"
   height="268.01993"
   id="svg3624"
   version="1.1"
   inkscape:version="0.48.5 r10040"
   sodipodi:docname="A.svg">
  <defs
     id="defs3626">
    <linearGradient
       x1="0"
       y1="0"
       x2="1"
       y2="0"
       gradientUnits="userSpaceOnUse"
       gradientTransform="matrix(0,37.3649,-37.3649,0,96.9723,19.544)"
       spreadMethod="pad"
       id="linearGradient3149">
      <stop
         style="stop-opacity:1;stop-color:#abd61f"
         offset="0"
         id="stop3151" />
      <stop
         style="stop-opacity:1;stop-color:#64b234"
         offset="0.166"
         id="stop3153" />
      <stop
         style="stop-opacity:1;stop-color:#3a9c41"
         offset="0.332001"
         id="stop3155" />
      <stop
         style="stop-opacity:1;stop-color:#449d4a"
         offset="0.498001"
         id="stop3157" />
      <stop
         style="stop-opacity:1;stop-color:#47a05f"
         offset="0.664001"
         id="stop3159" />
      <stop
         style="stop-opacity:1;stop-color:#3e967c"
         offset="0.830002"
         id="stop3161" />
      <stop
         style="stop-opacity:1;stop-color:#2f83af"
         offset="1"
         id="stop3163" />
    </linearGradient>
    <clipPath
       clipPathUnits="userSpaceOnUse"
       id="clipPath3129">
      <path
         inkscape:connector-curvature="0"
         d="m 66.472,17.12 61.229,0 0,39.999 -61.229,0 0,-39.999 z"
         id="path3131" />
    </clipPath>
    <linearGradient
       x1="0"
       y1="0"
       x2="1"
       y2="0"
       gradientUnits="userSpaceOnUse"
       gradientTransform="matrix(0,27.6297,-27.6297,0,96.9723,23.9807)"
       spreadMethod="pad"
       id="linearGradient3111">
      <stop
         style="stop-opacity:1;stop-color:#f5b314"
         offset="0"
         id="stop3113" />
      <stop
         style="stop-opacity:1;stop-color:#f4a019"
         offset="0.199997"
         id="stop3115" />
      <stop
         style="stop-opacity:1;stop-color:#f2781e"
         offset="0.399994"
         id="stop3117" />
      <stop
         style="stop-opacity:1;stop-color:#f06021"
         offset="0.600006"
         id="stop3119" />
      <stop
         style="stop-opacity:1;stop-color:#ef3724"
         offset="1"
         id="stop3121" />
    </linearGradient>
  </defs>
  <sodipodi:namedview
     id="base"
     pagecolor="#ffffff"
     bordercolor="#666666"
     borderopacity="1.0"
     inkscape:pageopacity="0.0"
     inkscape:pageshadow="2"
     inkscape:zoom="0.40506722"
     inkscape:cx="896.66338"
     inkscape:cy="-319.57936"
     inkscape:document-units="px"
     inkscape:current-layer="layer1"
     showgrid="false"
     fit-margin-left="0.5"
     fit-margin-bottom="0.5"
     fit-margin-top="0.5"
     fit-margin-right="0.5"
     inkscape:window-width="1053"
     inkscape:window-height="1035"
     inkscape:window-x="855"
     inkscape:window-y="-20"
     inkscape:window-maximized="0" />
  <metadata
     id="metadata3629">
    <rdf:RDF>
      <cc:Work
         rdf:about="">
        <dc:format>image/svg+xml</dc:format>
        <dc:type
           rdf:resource="http://purl.org/dc/dcmitype/StillImage" />
        <dc:title></dc:title>
      </cc:Work>
    </rdf:RDF>
  </metadata>
  <g
     inkscape:label="Layer 1"
     inkscape:groupmode="layer"
     id="layer1"
     transform="translate(370.75135,-11.920838)">
    <path
       class="st0"
       d="m -188.51837,84.157548 c -2.12553,-1.59415 -3.1883,-3.71969 -3.71968,-6.3766 -3.1883,-36.66543 -34.00851,-65.36011 -71.7367,-65.36011 -37.7282,0 -68.54841,28.69468 -71.73671,65.89149 0,2.65692 -1.59415,4.78245 -3.71968,6.3766 -18.5984,12.75319 -30.82021,34.539892 -30.82021,58.983512 0,33.47713 22.84947,61.64041 53.66968,69.61116 l 0,0 c 5.31383,1.59415 10.62766,2.12553 12.75319,1.06276 3.71968,-2.12553 8.50213,-20.19255 6.3766,-23.91223 -1.06277,-2.12553 -6.3766,-4.25105 -11.69043,-5.31382 l 0,0 c -18.06702,-4.78245 -31.35159,-21.25532 -31.35159,-40.91649 0,-11.15904 4.25106,-20.72393 11.15904,-28.69468 3.1883,-3.1883 6.90798,-6.37659 10.62766,-8.50213 7.97074,-4.25106 12.22181,-12.753192 12.22181,-21.786702 0,0 0,0 0,0 0,-4.78245 0.53138,-9.03351 2.12553,-13.28457 5.31383,-17.00426 21.7867,-29.22607 40.38511,-29.22607 18.5984,0 35.07127,12.22181 40.3851,29.22607 1.59415,4.25106 2.12553,8.50212 2.12553,13.28457 0,0 0,0 0,0 0,9.03351 4.78245,17.004262 12.22181,21.786702 4.25107,2.12554 7.43936,5.31383 10.62766,8.50213 6.90798,7.43936 11.15904,17.53564 11.15904,28.69468 0,23.38085 -19.12978,42.51064 -42.51063,42.51064 -27.10054,0 -48.88724,22.31807 -48.88724,49.41861 v 28.16329 c 0,5.31383 0.53138,11.15905 2.12553,12.7532 3.1883,3.18829 21.78671,3.18829 24.975,0 1.59415,-1.59415 2.12554,-6.90798 2.12554,-12.7532 h 0 v -28.69468 c 0,-10.62766 8.50212,-19.12978 19.12978,-19.12978 39.85373,0 72.26809,-32.41436 72.26809,-72.26808 0.53138,-24.975 -11.69043,-46.761702 -30.28883,-60.046272 z"
       id="path5"
       inkscape:connector-curvature="0"
       style="fill:#72ef36" />
    <g
       id="g7"
       style="fill:#19383a;fill-opacity:1"
       transform="matrix(5.3138298,0,0,5.3138298,-370.25135,12.420838)">
      <g
         id="g9"
         style="fill:#19383a;fill-opacity:1">
        <path
           class="st1"
           d="M 94.3,35.5 H 90.2 V 34.1 C 88.9,35.4 87.3,36 85.3,36 83.4,36 81.9,35.4 80.8,34.2 79.7,33 79.1,31.4 79.1,29.5 V 20 h 4.1 v 8.7 c 0,1.1 0.3,2 0.9,2.7 0.6,0.7 1.3,1 2.3,1 2.6,0 3.9,-1.8 3.9,-5.4 v -6.9 h 4.1 v 15.4 z"
           id="path11"
           style="fill:#19383a;fill-opacity:1"
           inkscape:connector-curvature="0" />
        <path
           class="st1"
           d="m 121.4,21.2 c 1.2,1.2 1.8,2.7 1.8,4.6 v 9.8 h -4.1 v -8.9 c 0,-1 -0.3,-1.8 -0.9,-2.5 -0.6,-0.6 -1.3,-0.9 -2.2,-0.9 -1.1,0 -2,0.4 -2.7,1.2 -0.6,0.8 -1,2 -1,3.6 v 7.5 h -4.1 v -8.9 c 0,-1 -0.3,-1.8 -0.9,-2.5 -0.6,-0.6 -1.3,-0.9 -2.2,-0.9 -1.1,0 -2,0.4 -2.6,1.2 -0.6,0.8 -0.9,2 -0.9,3.6 v 7.5 H 97.5 V 19.9 h 4.1 v 1.3 c 1.2,-1.2 2.7,-1.8 4.7,-1.8 2.3,0 4,0.9 5.1,2.6 1.4,-1.7 3.3,-2.6 5.7,-2.6 1.7,0 3.1,0.6 4.3,1.8 z"
           id="path13"
           style="fill:#19383a;fill-opacity:1"
           inkscape:connector-curvature="0" />
        <path
           class="st1"
           d="m 139,34.8 c -1.4,0.8 -2.8,1.2 -4.1,1.2 -1.9,0 -3.4,-0.5 -4.5,-1.6 -1.1,-1 -1.6,-2.6 -1.6,-4.7 v -6.5 h -3.4 v -3.4 h 3.4 v -4.7 h 4.1 v 4.7 h 5.1 v 3.4 h -5.1 v 6.2 c 0,1.8 0.8,2.7 2.3,2.7 0.8,0 1.7,-0.3 2.6,-0.8 l 1.2,3.5 z"
           id="path15"
           style="fill:#19383a;fill-opacity:1"
           inkscape:connector-curvature="0" />
        <path
           class="st1"
           d="m 152.6,19.8 -0.2,4 h -0.9 c -3.7,0 -5.6,2.2 -5.6,6.7 v 5 h -4.1 V 19.9 h 4.1 v 2.9 c 1.4,-2 3.3,-3.1 5.6,-3.1 0.5,0 0.9,0 1.1,0.1 z"
           id="path17"
           style="fill:#19383a;fill-opacity:1"
           inkscape:connector-curvature="0" />
        <path
           class="st1"
           d="m 169.7,28.8 h -11.9 c 0.2,1.1 0.7,2 1.4,2.6 0.7,0.7 1.6,1 2.5,1 1.8,0 3.1,-0.7 3.9,-2.1 l 3.7,0.8 c -0.7,1.6 -1.7,2.8 -3,3.6 -1.3,0.8 -2.9,1.2 -4.6,1.2 -2.3,0 -4.2,-0.8 -5.7,-2.3 -1.5,-1.5 -2.3,-3.5 -2.3,-6 0,-2.4 0.8,-4.4 2.3,-6 1.6,-1.6 3.5,-2.3 5.8,-2.3 2.1,0 4,0.7 5.5,2.2 1.5,1.5 2.3,3.4 2.4,5.8 v 1.5 z m -10.3,-5 c -0.7,0.5 -1.2,1.2 -1.5,2.1 h 7.6 c -0.3,-1 -0.7,-1.7 -1.4,-2.2 -0.7,-0.5 -1.4,-0.7 -2.3,-0.7 -0.9,0 -1.7,0.3 -2.4,0.8 z"
           id="path19"
           style="fill:#19383a;fill-opacity:1"
           inkscape:connector-curvature="0" />
        <path
           class="st1"
           d="m 188,28.8 h -11.9 c 0.2,1.1 0.7,2 1.4,2.6 0.7,0.7 1.6,1 2.5,1 1.8,0 3.1,-0.7 3.9,-2.1 l 3.7,0.8 c -0.7,1.6 -1.7,2.8 -3,3.6 -1.3,0.8 -2.9,1.2 -4.6,1.2 -2.3,0 -4.2,-0.8 -5.7,-2.3 -1.5,-1.5 -2.3,-3.5 -2.3,-6 0,-2.4 0.8,-4.4 2.3,-6 1.6,-1.6 3.5,-2.3 5.8,-2.3 2.1,0 4,0.7 5.5,2.2 1.5,1.5 2.3,3.4 2.4,5.8 v 1.5 z m -10.3,-5 c -0.7,0.5 -1.2,1.2 -1.5,2.1 h 7.6 c -0.3,-1 -0.7,-1.7 -1.4,-2.2 -0.7,-0.5 -1.4,-0.7 -2.3,-0.7 -0.9,0 -1.7,0.3 -2.4,0.8 z"
           id="path21"
           style="fill:#19383a;fill-opacity:1"
           inkscape:connector-curvature="0" />
        <path
           class="st1"
           d="m 64.6,23.3 v 3.9 h 7 c -0.4,1.5 -1.1,2.7 -2.2,3.6 -1.1,0.9 -2.5,1.3 -4.1,1.3 -2,0 -3.6,-0.7 -5,-2 -1.3,-1.3 -2,-3 -2,-5 0,-2 0.6,-3.6 1.9,-5 1.3,-1.3 2.9,-2 4.8,-2 2.7,0 4.7,1 6,3.1 l 3.5,-2.3 c -0.8,-1.3 -1.8,-2.4 -3.2,-3.2 -1.8,-1.1 -3.9,-1.6 -6.2,-1.6 -3.1,0 -5.7,1.1 -7.8,3.2 C 55.2,19.4 54,22 54,25 c 0,3.1 1.1,5.7 3.2,7.8 2.2,2.1 4.8,3.2 7.9,3.2 3.1,0 5.6,-1 7.6,-3.1 2,-2.1 3,-4.7 3,-7.8 0,-0.5 0,-1.1 -0.1,-1.8 h -11 z"
           id="path23"
           style="fill:#19383a;fill-opacity:1"
           inkscape:connector-curvature="0" />
      </g>
    </g>
  </g>
</svg>
